<svg width="110" height="45" viewBox="0 0 110 45" fill="none" xmlns="http://www.w3.org/2000/svg">
<path d="M44.6076 19.1227C44.6076 19.7083 44.6709 20.1831 44.7817 20.5313C44.9083 20.8796 45.0666 21.2594 45.2882 21.6709C45.3673 21.7976 45.399 21.9242 45.399 22.035C45.399 22.1933 45.304 22.3515 45.0982 22.5098L44.1011 23.1746C43.9586 23.2696 43.8162 23.317 43.6896 23.317C43.5313 23.317 43.373 23.2379 43.2147 23.0954C42.9931 22.858 42.8032 22.6048 42.6449 22.3515C42.4866 22.0825 42.3284 21.7817 42.1543 21.4177C40.9197 22.8739 39.3686 23.6019 37.5009 23.6019C36.1713 23.6019 35.1109 23.2221 34.3353 22.4623C33.5598 21.7026 33.1641 20.6896 33.1641 19.4234C33.1641 18.078 33.6389 16.9859 34.6044 16.1629C35.5699 15.3398 36.8519 14.9283 38.4822 14.9283C39.0203 14.9283 39.5743 14.9758 40.16 15.0549C40.7456 15.1341 41.347 15.2607 41.9802 15.4031V14.2477C41.9802 13.0448 41.7269 12.2059 41.2362 11.7153C40.7298 11.2246 39.8751 10.9872 38.6563 10.9872C38.1023 10.9872 37.5325 11.0505 36.9469 11.1929C36.3613 11.3354 35.7915 11.5095 35.2375 11.7311C34.9843 11.8419 34.7943 11.9052 34.6835 11.9368C34.5727 11.9685 34.4936 11.9843 34.4303 11.9843C34.2087 11.9843 34.0979 11.826 34.0979 11.4937V10.7181C34.0979 10.4649 34.1296 10.2749 34.2087 10.1641C34.2878 10.0533 34.4303 9.94254 34.6519 9.83174C35.2058 9.54684 35.8706 9.30943 36.6462 9.11949C37.4217 8.91373 38.2448 8.81876 39.1153 8.81876C40.9988 8.81876 42.3758 9.24612 43.2622 10.1008C44.1327 10.9555 44.5759 12.2534 44.5759 13.9945V19.1227H44.6076ZM38.1815 21.5285C38.7038 21.5285 39.2419 21.4335 39.8117 21.2436C40.3815 21.0537 40.888 20.7054 41.3154 20.2306C41.5686 19.9299 41.7586 19.5975 41.8535 19.2176C41.9485 18.8378 42.0118 18.3788 42.0118 17.8406V17.1758C41.5528 17.0651 41.0621 16.9701 40.5556 16.9068C40.0492 16.8435 39.5585 16.8118 39.0678 16.8118C38.0074 16.8118 37.2318 17.0176 36.7095 17.4449C36.1872 17.8723 35.9339 18.4737 35.9339 19.2651C35.9339 20.009 36.1239 20.563 36.5196 20.9429C36.8994 21.3386 37.4534 21.5285 38.1815 21.5285ZM50.8912 23.2379C50.6063 23.2379 50.4164 23.1904 50.2897 23.0796C50.1631 22.9847 50.0523 22.7631 49.9574 22.4623L46.2378 10.2274C46.1429 9.91088 46.0954 9.70512 46.0954 9.59433C46.0954 9.34108 46.222 9.19863 46.4752 9.19863H48.0264C48.3271 9.19863 48.5329 9.24612 48.6437 9.35691C48.7703 9.45188 48.8652 9.67347 48.9602 9.97419L51.6193 20.4522L54.0884 9.97419C54.1676 9.65764 54.2625 9.45188 54.3891 9.35691C54.5158 9.26194 54.7374 9.19863 55.0223 9.19863H56.2885C56.5892 9.19863 56.795 9.24612 56.9216 9.35691C57.0482 9.45188 57.159 9.67347 57.2223 9.97419L59.7231 20.5788L62.4613 9.97419C62.5563 9.65764 62.6671 9.45188 62.7779 9.35691C62.9045 9.26194 63.1103 9.19863 63.3952 9.19863H64.8672C65.1204 9.19863 65.2628 9.32525 65.2628 9.59433C65.2628 9.67347 65.247 9.75261 65.2312 9.84757C65.2154 9.94254 65.1837 10.0692 65.1204 10.2433L61.3059 22.4782C61.2109 22.7947 61.1001 23.0005 60.9735 23.0954C60.8469 23.1904 60.6411 23.2537 60.3721 23.2537H59.0109C58.7101 23.2537 58.5044 23.2062 58.3778 23.0954C58.2511 22.9847 58.1403 22.7789 58.077 22.4623L55.6237 12.2534L53.1862 22.4465C53.1071 22.7631 53.0121 22.9688 52.8855 23.0796C52.7589 23.1904 52.5373 23.2379 52.2524 23.2379H50.8912ZM71.2299 23.6652C70.4069 23.6652 69.5838 23.5703 68.7924 23.3803C68.0011 23.1904 67.3838 22.9847 66.9723 22.7472C66.719 22.6048 66.5449 22.4465 66.4816 22.3041C66.4183 22.1616 66.3866 22.0033 66.3866 21.8609V21.0537C66.3866 20.7213 66.5132 20.563 66.7507 20.563C66.8456 20.563 66.9406 20.5788 67.0356 20.6105C67.1305 20.6421 67.273 20.7054 67.4313 20.7688C67.9694 21.0062 68.555 21.1961 69.1723 21.3227C69.8054 21.4494 70.4227 21.5127 71.0558 21.5127C72.053 21.5127 72.8285 21.3386 73.3667 20.9903C73.9048 20.6421 74.1897 20.1356 74.1897 19.4867C74.1897 19.0435 74.0473 18.6795 73.7624 18.3788C73.4775 18.078 72.9393 17.809 72.1638 17.5557L69.8687 16.8435C68.7133 16.4794 67.8586 15.9413 67.3363 15.229C66.814 14.5326 66.5449 13.757 66.5449 12.934C66.5449 12.2692 66.6874 11.6836 66.9723 11.1771C67.2572 10.6706 67.637 10.2274 68.1119 9.87923C68.5867 9.51519 69.1248 9.24612 69.7579 9.05618C70.3911 8.86625 71.0558 8.78711 71.7522 8.78711C72.1005 8.78711 72.4645 8.80294 72.8127 8.85042C73.1768 8.8979 73.5091 8.96122 73.8415 9.02453C74.1581 9.10367 74.4588 9.1828 74.7437 9.27777C75.0286 9.37274 75.2502 9.46771 75.4085 9.56267C75.6301 9.68929 75.7883 9.81592 75.8833 9.95837C75.9783 10.085 76.0258 10.2591 76.0258 10.4807V11.2246C76.0258 11.557 75.8991 11.7311 75.6617 11.7311C75.5351 11.7311 75.3293 11.6678 75.0603 11.5411C74.1581 11.1296 73.1451 10.9239 72.0213 10.9239C71.1191 10.9239 70.4069 11.0663 69.9162 11.367C69.4256 11.6678 69.1723 12.1268 69.1723 12.7757C69.1723 13.2189 69.3306 13.5988 69.6472 13.8995C69.9637 14.2002 70.5493 14.5009 71.3882 14.77L73.6358 15.4823C74.7754 15.8463 75.5984 16.3528 76.0891 17.0017C76.5797 17.6507 76.8171 18.3946 76.8171 19.2176C76.8171 19.8982 76.6747 20.5155 76.4056 21.0537C76.1207 21.5918 75.7409 22.0666 75.2502 22.4465C74.7595 22.8422 74.1739 23.1271 73.4933 23.3329C72.7811 23.5545 72.0372 23.6652 71.2299 23.6652Z" fill="#252F3E" style="fill:#252F3E;fill:color(display-p3 0.1451 0.1843 0.2431);fill-opacity:1;"/>
<path fill-rule="evenodd" clip-rule="evenodd" d="M74.2204 31.3536C69.013 35.1998 61.4473 37.2416 54.9421 37.2416C45.8253 37.2416 37.6106 33.8703 31.4061 28.2672C30.9155 27.824 31.3587 27.2226 31.9443 27.5708C38.6553 31.4644 46.9332 33.8228 55.4961 33.8228C61.2732 33.8228 67.6202 32.6199 73.4606 30.1507C74.3312 29.755 75.0751 30.7205 74.2204 31.3536Z" fill="#FF9900" style="fill:#FF9900;fill:color(display-p3 1.0000 0.6000 0.0000);fill-opacity:1;"/>
<path fill-rule="evenodd" clip-rule="evenodd" d="M76.3904 28.885C75.7256 28.0303 71.9902 28.4734 70.2967 28.6792C69.7902 28.7425 69.711 28.2993 70.17 27.9669C73.1457 25.8777 78.0365 26.4791 78.6063 27.1756C79.1761 27.8878 78.448 32.7786 75.6623 35.1211C75.2349 35.4852 74.8234 35.2952 75.0133 34.8204C75.6465 33.2534 77.0551 29.7238 76.3904 28.885Z" fill="#FF9900" style="fill:#FF9900;fill:color(display-p3 1.0000 0.6000 0.0000);fill-opacity:1;"/>
</svg>
