<svg width="144" height="39" viewBox="0 0 144 39" fill="none" xmlns="http://www.w3.org/2000/svg">
<path d="M95.3757 21.7128C95.3757 17.8112 98.3832 14.9121 102.366 14.9121C106.349 14.9121 109.356 17.8112 109.356 21.7128V28.4865H105.943V21.7128C105.943 19.5453 104.399 18.0551 102.366 18.0551C100.334 18.0551 98.7897 19.5453 98.7897 21.7128V28.4865H95.3757V21.7128Z" fill="#3F48FD" style="fill:#3F48FD;fill:color(display-p3 0.2471 0.2824 0.9922);fill-opacity:1;"/>
<path d="M44.8367 24.2758C44.2406 25.0615 43.2652 25.3866 42.1814 25.3866C40.5015 25.3866 39.1197 24.4112 38.7675 22.8668H48.6841C48.7383 22.4333 48.7383 22.1082 48.7383 21.6747C48.7383 17.8814 46.0018 14.9552 42.046 14.9552C38.0631 14.9552 35.2181 17.8814 35.2181 21.7288C35.2181 25.6304 38.1714 28.5296 42.1814 28.5296C44.9451 28.5296 47.5462 26.8768 48.5215 24.2758H44.8367ZM38.8488 20.3199C39.0656 18.8568 40.5015 17.8814 42.046 17.8814C43.6175 17.8814 44.8909 18.8297 45.1077 20.3199H38.8488Z" fill="#3F48FD" style="fill:#3F48FD;fill:color(display-p3 0.2471 0.2824 0.9922);fill-opacity:1;"/>
<path d="M76.2425 19.1007C75.5381 16.608 73.3976 14.9552 69.5502 14.9552C65.8924 14.9552 63.6978 16.7163 63.6978 19.209C63.6978 21.5392 65.2421 22.7313 68.1684 23.0294L70.7152 23.2732C72.0158 23.4087 72.7203 23.7609 72.7203 24.4925C72.7203 25.3053 71.6906 25.7117 70.3901 25.7117C68.6019 25.7117 67.3555 25.224 66.9491 24.1132H63.3185C63.9416 26.931 66.3259 28.5296 70.1191 28.5296C73.9125 28.5296 76.1342 26.7413 76.1342 24.2758C76.1342 21.8101 74.4001 20.618 71.501 20.3741L69.1709 20.1844C67.8432 20.0761 67.1117 19.7509 67.1117 19.0465C67.1117 18.2607 68.0058 17.773 69.4689 17.773C71.0133 17.773 72.097 18.1794 72.6119 19.1007H76.2425Z" fill="#3F48FD" style="fill:#3F48FD;fill:color(display-p3 0.2471 0.2824 0.9922);fill-opacity:1;"/>
<path d="M55.2574 28.1728H51.8435V21.6317C51.8435 18.4459 53.8439 15.1945 58.6442 15.1945H61.0623V18.4459H58.6171C56.4224 18.4459 55.2574 19.8548 55.2574 21.914V28.1728Z" fill="#3F48FD" style="fill:#3F48FD;fill:color(display-p3 0.2471 0.2824 0.9922);fill-opacity:1;"/>
<path fill-rule="evenodd" clip-rule="evenodd" d="M25.4045 14.9552C21.4216 14.9552 18.4141 17.8543 18.4141 21.7559V33.9868H21.828V28.5296H25.4045C29.3873 28.5296 32.3949 25.6304 32.3949 21.7559C32.3949 17.8543 29.3873 14.9552 25.4045 14.9552ZM28.9809 21.7559C28.9809 19.5884 27.4366 18.0982 25.4045 18.0982C23.3724 18.0982 21.828 19.5884 21.828 21.7559V25.3866H25.4045C27.4366 25.3866 28.9809 23.8964 28.9809 21.7559Z" fill="#3F48FD" style="fill:#3F48FD;fill:color(display-p3 0.2471 0.2824 0.9922);fill-opacity:1;"/>
<path fill-rule="evenodd" clip-rule="evenodd" d="M119.255 14.9552C123.238 14.9552 126.246 17.8543 126.246 21.7559V28.5296H119.255C115.272 28.5296 112.265 25.6304 112.265 21.7559C112.265 17.8543 115.272 14.9552 119.255 14.9552ZM115.679 21.7559C115.679 19.5884 117.223 18.0982 119.255 18.0982C121.287 18.0982 122.832 19.5884 122.832 21.7559V25.3866H119.255C117.223 25.3866 115.679 23.8964 115.679 21.7559Z" fill="#3F48FD" style="fill:#3F48FD;fill:color(display-p3 0.2471 0.2824 0.9922);fill-opacity:1;"/>
<path d="M85.4918 14.9552C81.509 14.9552 78.5015 17.8543 78.5015 21.7559C78.5015 25.6304 81.509 28.5296 85.4918 28.5296C89.4747 28.5296 92.4823 25.6304 92.4823 21.7559C92.4823 17.8543 89.4747 14.9552 85.4918 14.9552ZM85.4918 18.0982C87.524 18.0982 89.0683 19.5884 89.0683 21.7559C89.0683 23.8964 87.524 25.3866 85.4918 25.3866C83.4598 25.3866 81.9154 23.8964 81.9154 21.7559C81.9154 19.5884 83.4598 18.0982 85.4918 18.0982Z" fill="#3F48FD" style="fill:#3F48FD;fill:color(display-p3 0.2471 0.2824 0.9922);fill-opacity:1;"/>
</svg>
