<svg width="116" height="33" viewBox="0 0 116 33" fill="none" xmlns="http://www.w3.org/2000/svg">
<path fill-rule="evenodd" clip-rule="evenodd" d="M12.7826 32.2441L3.05523 29.6965L0.374476 19.9143L3.72726 16.4719L0.320312 13.0863L2.84326 3.26133L12.5285 0.555159L15.9361 3.94138L19.2889 0.499657L29.0163 3.04735L31.6964 12.8302L28.3442 16.2713L31.7512 19.6568L29.2282 29.4825L19.5417 32.1886L16.1354 28.8031L12.7826 32.2441ZM6.81324 27.8148L11.9374 29.1575L14.1781 26.8572L10.9103 23.6101L6.81324 27.8148ZM18.0619 26.8265L20.3387 29.0886L25.4408 27.663L21.2769 23.5258L18.0619 26.8265ZM3.44441 20.7173L4.856 25.8696L8.9517 21.6649L5.6845 18.4177L3.44441 20.718V20.7173ZM23.202 21.5485L27.3659 25.687L28.694 20.5114L26.4178 18.2486L23.202 21.5485ZM12.8361 21.6334L16.104 24.8806L19.3183 21.58L16.0511 18.3328L12.8361 21.6334ZM7.61099 16.4411L10.8782 19.6882L14.0946 16.3876L10.826 13.1405L7.61099 16.4411ZM17.9776 16.3562L21.2448 19.6033L24.4598 16.3027L21.192 13.0556L17.9776 16.3562ZM3.3762 12.2324L5.65374 14.4959L8.86811 11.1946L4.70555 7.05812L3.3762 12.2324ZM12.7518 11.1638L16.0197 14.411L19.2347 11.1104L15.9675 7.86322L12.7518 11.1638ZM23.1178 11.0783L26.3857 14.3254L28.6264 12.0258L27.2155 6.87356L23.1178 11.0783ZM6.63069 5.08015L10.7939 9.21864L14.0103 5.91801L11.7328 3.65451L6.63069 5.08015ZM17.8934 5.88658L21.1605 9.13372L25.2569 4.92836L20.1334 3.58631L17.8934 5.88658Z" fill="#111111" style="fill:#111111;fill:color(display-p3 0.0667 0.0667 0.0667);fill-opacity:1;"/>
<path fill-rule="evenodd" clip-rule="evenodd" d="M91.223 25.3118H95.712V7.52384H91.223V25.3118ZM113.14 10.8578C112.573 10.0357 111.845 9.33724 111 8.80484C109.645 7.95084 107.796 7.52484 105.455 7.52484H99.541V25.3118H106.459C108.959 25.3118 110.965 24.4948 112.479 22.8588C113.993 21.2238 114.749 19.0538 114.749 16.3508C114.749 14.2008 114.213 12.3698 113.14 10.8578ZM105.957 21.2848H104.03V11.5508H105.984C107.357 11.5508 108.412 11.9808 109.152 12.8378C109.892 13.6948 110.262 14.9108 110.262 16.4848C110.262 19.6848 108.827 21.2848 105.957 21.2848Z" fill="#111111" style="fill:#111111;fill:color(display-p3 0.0667 0.0667 0.0667);fill-opacity:1;"/>
<path fill-rule="evenodd" clip-rule="evenodd" d="M54.919 8.76564C53.862 7.87664 52.058 7.43264 49.506 7.43264H43.75V25.2206H48.054V19.6456H49.982C52.322 19.6456 54.038 19.1306 55.13 18.0996C56.36 16.9446 56.979 15.4066 56.979 13.4866C56.979 11.4956 56.292 9.92164 54.919 8.76564ZM49.875 15.6206H48.054V11.4576H49.69C51.68 11.4576 52.675 12.1556 52.675 13.5516C52.675 14.9296 51.741 15.6206 49.875 15.6206ZM64.344 7.43164H59.856V25.2196H69.546V21.1936H64.344V7.43164ZM78.339 7.43164L71.289 25.2196H76.121L77.045 22.6336H83.171L84.016 25.2196H88.902L81.902 7.43164H78.339ZM78.286 19.0326L80.135 12.9526L81.955 19.0326H78.286Z" fill="#111111" style="fill:#111111;fill:color(display-p3 0.0667 0.0667 0.0667);fill-opacity:1;"/>
</svg>
